<?xml version="1.0" encoding="utf-8"?><svg viewBox="0 0 488.85 488.85" xmlns="http://www.w3.org/2000/svg" xmlns:xlink="http://www.w3.org/1999/xlink"><style>:root>svg{display:none}:root>svg:target{display:block}</style><svg viewBox="0 0 7 8" id="angle" xmlns="http://www.w3.org/2000/svg"><g clip-path="url(#aa)"><path d="M6.92 5.69a.273.273 0 01-.387 0l-2.84-2.834a.274.274 0 00-.387 0L.466 5.69a.273.273 0 01-.386-.387L2.92 2.47a.818.818 0 011.16 0l2.84 2.833a.273.273 0 010 .387z"/></g><defs><clipPath id="aa"><path transform="matrix(1 0 0 -1 0 7.5)" d="M0 0h7v7H0z"/></clipPath></defs></svg><svg viewBox="0 0 28 26" id="cart" xmlns="http://www.w3.org/2000/svg"><path d="M28 9.286h-4.755L18.25.45a.847.847 0 00-1.2-.319c-.415.264-.549.835-.3 1.274l4.455 7.88H6.795l4.455-7.88c.249-.44.115-1.01-.3-1.274-.416-.264-.952-.12-1.2.319L4.755 9.286H0v1.857h1.9l2.222 12.584C4.354 25.044 5.44 26 6.702 26h14.595c1.263 0 2.348-.956 2.58-2.273l2.224-12.584H28V9.286zm-5.843 14.1c-.077.439-.438.757-.86.757H6.703c-.422 0-.783-.318-.86-.758L3.678 11.143H24.32l-2.164 12.243z"/></svg><svg viewBox="0 0 26 20" id="eye" xmlns="http://www.w3.org/2000/svg"><path clip-rule="evenodd" d="M16.952 10.066a3.952 3.952 0 11-7.904-.001 3.952 3.952 0 017.904.001z"/><path clip-rule="evenodd" d="M12.998 19.194c4.76 0 9.113-3.423 11.565-9.128C22.11 4.361 17.758.94 12.998.94h.005c-4.76 0-9.114 3.422-11.566 9.127 2.452 5.705 6.805 9.128 11.566 9.128h-.005z"/></svg><svg viewBox="0 0 488.85 488.85" id="glass" xmlns="http://www.w3.org/2000/svg"><path d="M244.425 98.725c-93.4 0-178.1 51.1-240.6 134.1-5.1 6.8-5.1 16.3 0 23.1 62.5 83.1 147.2 134.2 240.6 134.2s178.1-51.1 240.6-134.1c5.1-6.8 5.1-16.3 0-23.1-62.5-83.1-147.2-134.2-240.6-134.2zm6.7 248.3c-62 3.9-113.2-47.2-109.3-109.3 3.2-51.2 44.7-92.7 95.9-95.9 62-3.9 113.2 47.2 109.3 109.3-3.3 51.1-44.8 92.6-95.9 95.9zm-3.1-47.4c-33.4 2.1-61-25.4-58.8-58.8 1.7-27.6 24.1-49.9 51.7-51.7 33.4-2.1 61 25.4 58.8 58.8-1.8 27.7-24.2 50-51.7 51.7z"/></svg><svg viewBox="0 0 6 11" id="tooltip" xmlns="http://www.w3.org/2000/svg"><path d="M3.78 7.852H2.184a4.09 4.09 0 01.14-1.31c.121-.38.28-.691.476-.933.205-.25.41-.478.616-.682.205-.204.401-.427.588-.669.196-.25.327-.51.392-.78.075-.547-.037-.974-.336-1.28-.299-.317-.69-.474-1.176-.474-.364 0-.695.12-.994.362a1.447 1.447 0 00-.532.96H0C.037 2.147.313 1.465.826 1 1.349.535 2.03.303 2.87.303 3.645.284 4.321.475 4.9.874c.588.4.938.924 1.05 1.574.056.353.065.66.028.92a2.336 2.336 0 01-.322.946c-.168.288-.36.543-.574.766-.205.223-.41.46-.616.71a2.934 2.934 0 00-.504.892c-.13.343-.191.733-.182 1.17zm-.154 2.2a.903.903 0 01-.644.237c-.261 0-.485-.079-.672-.237a.782.782 0 01-.266-.613c0-.25.089-.454.266-.612.187-.158.41-.237.672-.237.261 0 .476.079.644.237a.782.782 0 01.266.612.784.784 0 01-.266.613z"/></svg><svg viewBox="0 0 20 20" id="trash" xmlns="http://www.w3.org/2000/svg"><path d="M18.572 2.857h-5v-.714A2.144 2.144 0 0011.428 0H8.572C7.388 0 6.429.96 6.429 2.143v.714h-5a.714.714 0 100 1.429h.776L3.572 19.35c.033.369.343.65.714.649h11.428c.37.002.681-.28.715-.65l1.366-15.064h.776a.714.714 0 100-1.429zM7.857 2.143c0-.395.32-.714.715-.714h2.857c.394 0 .714.32.714.714v.714H7.857v-.714zm7.205 16.428H4.938L3.643 4.286H16.36L15.062 18.57z" fill-opacity=".3"/><path d="M7.857 16.381v-.003l-.714-10a.716.716 0 00-1.429.101l.715 10a.714.714 0 00.714.664h.051a.714.714 0 00.663-.762zM10 5.714a.714.714 0 00-.714.715v10a.714.714 0 101.428 0v-10A.714.714 0 0010 5.714zm3.622 0a.716.716 0 00-.765.664l-.714 10a.714.714 0 00.66.764h.053a.713.713 0 00.715-.663l.715-10a.716.716 0 00-.664-.765z" fill-opacity=".3"/></svg></svg>